<?xml version="1.0" encoding="UTF-8"?>
<svg xmlns="http://www.w3.org/2000/svg" xmlns:xlink="http://www.w3.org/1999/xlink" width="64pt" height="64pt" viewBox="0 0 64 64" version="1.1">
<g id="surface9739737">
<path style=" stroke:none;fill-rule:nonzero;fill:rgb(100%,100%,100%);fill-opacity:1;" d="M 31.675781 6.023438 C 31.097656 5.992188 30.664062 6.445312 30.652344 7 L 30.605469 9 C 30.589844 9.550781 31.027344 10.007812 31.578125 10.023438 L 31.605469 10.023438 C 32.144531 10.023438 32.589844 9.589844 32.605469 9.046875 L 32.648438 7.046875 C 32.660156 6.492188 32.226562 6.035156 31.675781 6.023438 Z M 26.257812 6.460938 C 25.714844 6.566406 25.359375 7.089844 25.464844 7.632812 L 25.835938 9.597656 C 25.925781 10.078125 26.34375 10.410156 26.816406 10.410156 C 26.878906 10.410156 26.941406 10.402344 27.003906 10.390625 C 27.546875 10.289062 27.902344 9.769531 27.800781 9.222656 L 27.429688 7.261719 C 27.324219 6.71875 26.804688 6.363281 26.257812 6.464844 Z M 36.761719 6.859375 C 36.375 6.902344 36.027344 7.167969 35.90625 7.5625 L 35.320312 9.472656 C 35.160156 10 35.457031 10.5625 35.984375 10.722656 C 36.082031 10.753906 36.179688 10.765625 36.277344 10.765625 C 36.707031 10.765625 37.101562 10.492188 37.234375 10.058594 L 37.820312 8.148438 C 37.980469 7.621094 37.683594 7.0625 37.15625 6.898438 C 37.023438 6.859375 36.890625 6.847656 36.761719 6.859375 Z M 21.453125 7.953125 C 21.324219 7.949219 21.191406 7.976562 21.0625 8.027344 C 20.550781 8.238281 20.3125 8.824219 20.523438 9.335938 L 21.292969 11.183594 C 21.449219 11.566406 21.824219 11.796875 22.214844 11.796875 C 22.34375 11.796875 22.472656 11.773438 22.597656 11.722656 C 23.109375 11.511719 23.351562 10.925781 23.140625 10.414062 L 22.371094 8.566406 C 22.210938 8.183594 21.84375 7.953125 21.453125 7.953125 Z M 41.816406 9.101562 C 41.433594 9.035156 41.027344 9.199219 40.804688 9.546875 L 39.722656 11.230469 C 39.425781 11.695312 39.558594 12.316406 40.023438 12.613281 C 40.191406 12.71875 40.378906 12.769531 40.5625 12.769531 C 40.894531 12.769531 41.21875 12.609375 41.40625 12.3125 L 42.488281 10.628906 C 42.785156 10.160156 42.652344 9.542969 42.183594 9.242188 C 42.070312 9.167969 41.945312 9.121094 41.816406 9.097656 Z M 16.660156 10.449219 C 16.53125 10.472656 16.40625 10.523438 16.292969 10.601562 C 15.835938 10.914062 15.71875 11.535156 16.03125 11.992188 L 17.15625 13.644531 C 17.347656 13.929688 17.664062 14.082031 17.984375 14.082031 C 18.175781 14.082031 18.371094 14.027344 18.542969 13.910156 C 19 13.597656 19.117188 12.976562 18.808594 12.519531 L 17.683594 10.867188 C 17.449219 10.523438 17.042969 10.371094 16.660156 10.449219 Z M 45.714844 12.5 C 45.460938 12.488281 45.199219 12.574219 44.992188 12.757812 L 43.507812 14.097656 C 43.097656 14.46875 43.066406 15.101562 43.433594 15.507812 C 43.632812 15.730469 43.90625 15.839844 44.175781 15.839844 C 44.417969 15.839844 44.65625 15.753906 44.847656 15.582031 L 46.332031 14.242188 C 46.742188 13.871094 46.777344 13.238281 46.40625 12.828125 C 46.222656 12.625 45.96875 12.515625 45.714844 12.5 Z M 30 13 C 22.414062 13 15.863281 17.453125 12.828125 23.902344 C 9.917969 25.882812 8 29.222656 8 33 C 8 35.367188 9.191406 37.464844 11 38.734375 L 11 56 C 11 56.550781 11.449219 57 12 57 L 53 57 C 53.550781 57 54 56.550781 54 56 L 54 37 C 54 33.144531 50.855469 30 47 30 L 45 30 L 45 26 C 45 18.828125 39.171875 13 32 13 Z M 12.847656 13.777344 C 12.59375 13.78125 12.339844 13.882812 12.144531 14.078125 C 11.761719 14.476562 11.765625 15.109375 12.164062 15.492188 L 13.59375 16.890625 C 13.789062 17.082031 14.039062 17.175781 14.292969 17.175781 C 14.550781 17.175781 14.8125 17.074219 15.007812 16.875 C 15.394531 16.480469 15.386719 15.847656 14.992188 15.460938 L 13.5625 14.0625 C 13.363281 13.871094 13.105469 13.777344 12.851562 13.777344 Z M 30 15 L 32 15 C 38.089844 15 43 19.910156 43 26 L 43 55 L 13 55 L 13 39.703125 C 13.632812 39.894531 14.304688 40 15 40 L 26 40 C 30.957031 40 35 35.957031 35 31 C 35 26.042969 30.957031 22 26 22 L 19 22 C 17.945312 22 16.925781 22.160156 15.960938 22.4375 C 19.015625 17.949219 24.152344 15 30 15 Z M 48.582031 16.835938 C 48.453125 16.847656 48.324219 16.882812 48.199219 16.945312 L 46.417969 17.855469 C 45.925781 18.105469 45.730469 18.707031 45.980469 19.199219 C 46.15625 19.542969 46.507812 19.746094 46.871094 19.746094 C 47.023438 19.746094 47.179688 19.707031 47.324219 19.636719 L 49.109375 18.726562 C 49.597656 18.476562 49.796875 17.875 49.546875 17.382812 C 49.359375 17.011719 48.972656 16.808594 48.582031 16.835938 Z M 50.605469 21.824219 C 50.476562 21.796875 50.339844 21.796875 50.207031 21.828125 L 48.25 22.238281 C 47.710938 22.351562 47.363281 22.882812 47.480469 23.421875 C 47.578125 23.894531 47.992188 24.214844 48.453125 24.214844 C 48.523438 24.214844 48.59375 24.210938 48.660156 24.195312 L 50.617188 23.78125 C 51.160156 23.667969 51.507812 23.136719 51.390625 22.597656 C 51.308594 22.191406 50.984375 21.898438 50.601562 21.820312 Z M 19 24 L 26 24 C 29.878906 24 33 27.121094 33 31 C 33 34.878906 29.878906 38 26 38 L 15 38 C 14.089844 38 13.253906 37.742188 12.519531 37.320312 C 12.492188 37.304688 12.460938 37.289062 12.429688 37.273438 C 10.976562 36.402344 10 34.828125 10 33 C 10 29.902344 11.554688 27.175781 13.925781 25.558594 C 14.0625 25.511719 14.183594 25.433594 14.285156 25.335938 C 15.65625 24.492188 17.269531 24 19 24 Z M 45 32 L 47 32 C 49.773438 32 52 34.226562 52 37 L 52 55 L 45 55 Z M 18 47 C 17.449219 47 17 47.449219 17 48 L 17 50 C 17 50.550781 17.449219 51 18 51 C 18.550781 51 19 50.550781 19 50 L 19 48 C 19 47.449219 18.550781 47 18 47 Z M 23 47 C 22.449219 47 22 47.449219 22 48 L 22 50 C 22 50.550781 22.449219 51 23 51 C 23.550781 51 24 50.550781 24 50 L 24 48 C 24 47.449219 23.550781 47 23 47 Z M 28 47 C 27.449219 47 27 47.449219 27 48 L 27 50 C 27 50.550781 27.449219 51 28 51 C 28.550781 51 29 50.550781 29 50 L 29 48 C 29 47.449219 28.550781 47 28 47 Z M 33 47 C 32.449219 47 32 47.449219 32 48 L 32 50 C 32 50.550781 32.449219 51 33 51 C 33.550781 51 34 50.550781 34 50 L 34 48 C 34 47.449219 33.550781 47 33 47 Z M 38 47 C 37.449219 47 37 47.449219 37 48 L 37 50 C 37 50.550781 37.449219 51 38 51 C 38.550781 51 39 50.550781 39 50 L 39 48 C 39 47.449219 38.550781 47 38 47 Z M 38 47 "/>
</g>
</svg>
